<?xml version="1.0" encoding="UTF-8"?>
<svg version="1.1" viewBox="0 0 2048 2048" width="1280" height="1280" xmlns="http://www.w3.org/2000/svg">
<path transform="translate(99,260)" d="m0 0 52 1h1803l10 1 1 1v1488l-4 2-31 1h-282l-1455 1h-91l-3-1-2-11-1-50v-1314l1-109 1-9zm91 93-1 48v1250l1 7h1681v-1305z" fill="#ffffff"/>
<path transform="translate(1027,1137)" d="m0 0h13l5 3 6 7 7 16 7 15 12 25 13 28 13 27 11 23 12 26 8 16 11 24 10 21 9 15 12 26 2 7-4 4h-51l-13-1-6-5-6-15-7-16-7-18-4-4-79-1h-42l-9 1-10 28-9 26-5 4h-79l-5-1-3 2h-185l-5-1-1-2-1-37v-241l1-1 76 1 1 1v60l-1 129v30l120 2 2 2v16l-2 25 3 7 4 4 4-2 4-5 8-18 13-28 11-24 17-35 17-36 12-26 14-30 11-23 13-28 8-16 4-4 3-1zm-12 80-10 21-6 15-12 26-11 24v3l41 1h39l-3-10-12-28-11-26-8-18-5-8z" fill="#ffffff"/>
<path transform="translate(872,556)" d="m0 0h18l30 2 9 3 6 7 14 19 11 13 12 16 9 10 9 11 11 12 13 17 9 11 13 17 8 10 7 7 7 9-1-23v-139l18-1h47l4 2v275l-4 5-3 1-17 1h-11l-13-2-8-4-10-10-9-11-9-10-11-14-11-13-9-11-12-14-11-14-8-9-11-14-16-21-9-11-4-5-2-1 1 2 1 153-2 6-4 2h-43l-20-1-1-2-1-9v-219l1-49z" fill="#ffffff"/>
<path transform="translate(627,556)" d="m0 0h200l2 1v28l-1 22-1 2-4 1h-125v54l117 1 6 2 1 3v23l-1 21-3 3-4 1h-116l-1 44-1 23 131 1 2 2 1 28v20l-1 2-4 1-132 1h-62l-4-1-2-5-1-119v-106l1-51z" fill="#ffffff"/>
<path transform="translate(1564,1134)" d="m0 0h25l26 3 25 5 24 8 13 7 6 6-1 10-8 20-8 17-3 3-8-1-21-12-15-6-21-5-6-1h-24l-11 3-14 7-7 6-3 5-1 7 5 12 11 7 15 6 26 7 24 6 22 7 16 7 14 8 12 11 8 10 7 14 2 10v24l-4 16-8 16-10 13-11 10-10 6-16 7-21 6-23 3-17 1h-14l-26-2-24-4-21-6-21-8-8-6-4-5 3-10 8-14 8-21 2-2 6 1 22 11 21 7 23 4 29 2 13-1 15-5 9-6 5-6 2-5-1-7-4-8-7-6-16-6-44-10-25-7-17-6-12-6-11-8-7-6-9-12-6-14-2-8-1-10v-11l3-17 7-16 6-10 8-10 7-7 14-10 16-8 18-6 16-3z" fill="#ffffff"/>
<path transform="translate(1293,1134)" d="m0 0h21l20 2 24 4 19 5 19 8 9 5 4 5v9l-5 13-7 15-3 9-4 4-7-1-22-12-13-5-19-5-11-2h-21l-14 3-16 8-6 7-2 5v8l3 6 4 5 15 8 18 6 44 11 24 8 16 8 11 7 6 5v2h2v2h2l8 10 7 15 2 11v18l-3 17-7 16-10 14-11 11-11 7-16 7-21 6-24 3-27 1-23-1-31-4-21-6-23-10-7-8-1-7 4-11 13-26 5-4 9 3 16 8 20 7 25 4 10 1h31l15-5 9-6 5-6 1-3v-8l-4-8-8-7-15-6-40-9-26-7-18-6-14-7-12-9-9-9-7-11-5-12-2-6-1-7v-17l3-16 8-18 10-14 6-7 16-12 16-8 13-5 23-5z" fill="#ffffff"/>
<path transform="translate(392,556)" d="m0 0h154l31 1 3 5v30l-1 13-5 13-10 13-14 18-14 19-11 14-20 26-9 12-10 13-20 25-9 10-7 8-2 3h114l18 1 3 3 1 32v22l-4 2-186 1-21-1-5-4-1-3v-32l1-11 4-9 8-12 12-15 14-19 11-14 36-48 10-13 11-14 10-13 11-16-35 1h-81l-8-1-3-3-1-3v-46l2-7z" fill="#ffffff"/>
<path transform="translate(500,1134)" d="m0 0h20l18 2 25 5 14 5 16 8 9 6 4 5 1 9-5 12-8 14-8 16-3 2-11-6-17-10-14-5-19-3h-17l-13 2-14 5-11 7-6 5-9 13-6 13-4 17-2 17v17l2 17 5 17 6 10 8 10 9 8 16 8 14 4 6 1h17l19-5 16-6 11-6 10-6h6l6 7 7 17 7 14 1 4v8l-7 8-19 10-21 7-17 3-22 2h-27l-25-3-19-5-21-10-16-12-14-14-11-16-9-16-8-20-4-14-2-10-1-10v-28l3-18 4-16 6-15 10-19 9-12 11-12 9-8 15-10 16-8 18-6 25-5z" fill="#ffffff"/>
</svg>
